<?xml version="1.0" encoding="utf-8"?>
<!-- Generator: Adobe Illustrator 18.1.0, SVG Export Plug-In . SVG Version: 6.00 Build 0)  -->
<svg version="1.1" id="Layer_1" xmlns="http://www.w3.org/2000/svg" xmlns:xlink="http://www.w3.org/1999/xlink" x="0px" y="0px"
	 viewBox="0 0 245 245" enable-background="new 0 0 245 245" xml:space="preserve">
<g>
	<circle fill="#FFFFFF" cx="122.5" cy="122.5" r="122.5"/>
</g>
<g>
	<g>
		<path fill="none" stroke="#7DBE42" stroke-width="10" stroke-linecap="round" stroke-miterlimit="10" d="M50.9,65.8h33.3
			c12.2,0,22.3,10,22.3,22.3c0,12.2-10,22.3-22.3,22.3l-34.6,0v44.3"/>
		<g>
			<polygon fill="#7DBE42" points="39.7,151.7 49.7,168.9 59.6,151.7 			"/>
		</g>
	</g>
</g>
<path fill="#7DBE42" d="M49.7,55.8L49.7,55.8c5.5,0,10,4.5,10,10v0c0,5.5-4.5,10-10,10h0c-5.5,0-10-4.5-10-10v0
	C39.7,60.2,44.2,55.8,49.7,55.8z"/>
<rect x="34.7" y="168.9" fill="#7DBE42" width="30" height="10"/>
<rect x="108.6" y="168.9" fill="#7DBE42" width="30" height="10"/>
<rect x="176.9" y="168.9" fill="#7DBE42" width="30" height="10"/>
<g>
	<g>
		<path fill="none" stroke="#7DBE42" stroke-width="10" stroke-linecap="round" stroke-linejoin="round" d="M191.9,154.6V69
			c0-4.2-4.9-6.5-8.1-3.8l-21.9,18h0c-2.4,2-5.8,2-8.2,0l-21.9-18c-3.2-2.7-8.1-0.4-8.1,3.8v85.6"/>
		<g>
			<polygon fill="#7DBE42" points="201.9,151.7 191.9,168.9 181.9,151.7 			"/>
		</g>
		<g>
			<polygon fill="#7DBE42" points="113.7,151.7 123.6,168.9 133.6,151.7 			"/>
		</g>
	</g>
</g>
</svg>
